<svg width="80" height="31" viewBox="0 0 80 31" fill="none" xmlns="http://www.w3.org/2000/svg">
<path fill-rule="evenodd" clip-rule="evenodd" d="M28.5854 3.02774C26.2701 1.00925 22.8861 0 18.4336 0C14.1888 0 10.8197 0.801461 8.32629 2.40438C5.86254 3.97761 4.30413 6.11484 3.65109 8.81606C3.47299 9.52846 3.38395 10.226 3.38395 10.9088C3.38395 12.5117 3.85889 13.9216 4.80877 15.1387C5.78833 16.3557 7.13893 17.3056 8.86059 17.9883C10.6119 18.671 12.6007 19.0124 14.827 19.0124C16.7268 18.9827 18.389 18.6265 19.8139 17.9438C19.0421 20.8528 18.0922 22.99 16.9642 24.3555C15.8363 25.6912 14.4708 26.3591 12.8679 26.3591C11.829 26.3591 10.9384 26.2107 10.1964 25.9139C10.5229 25.1718 10.6861 24.3851 10.6861 23.554C10.6861 22.1589 10.1815 21.016 9.17227 20.1255C8.16302 19.235 6.79758 18.7898 5.07593 18.7898C3.79953 18.7898 2.71606 19.0718 1.82555 19.6358C0.964719 20.1997 0.400741 21.0457 0.133588 22.1737C0.0445371 22.5299 0 22.8713 0 23.1978C0 24.4148 0.534309 25.5725 1.60292 26.6708C2.70122 27.7394 4.25961 28.6151 6.2781 29.2978C8.32627 29.9508 10.7158 30.2774 13.4467 30.2774C17.8696 30.2774 21.6246 29.2681 24.7117 27.2496C27.7988 25.2015 29.9212 22.0995 31.0788 17.9438C31.7615 15.5394 32.1029 13.3873 32.1029 11.4876C32.1029 7.83649 30.9304 5.01654 28.5854 3.02774ZM20.8247 4.36352C21.8563 4.36352 22.805 4.71172 23.4965 5.34394C24.1798 5.96877 24.5562 6.82238 24.5562 7.74756C24.5562 8.69996 24.1353 9.5717 23.2314 10.491C22.4229 11.3135 21.2609 12.1483 19.9154 13.1148L19.9153 13.1149L19.904 13.123C19.447 13.4514 18.93 13.8229 18.3935 14.2184C18.2509 14.3237 18.0674 14.3818 17.8773 14.3818C17.6872 14.3818 17.5038 14.3237 17.361 14.2182C16.8206 13.8199 16.3001 13.446 15.8409 13.116L15.8397 13.1152C14.494 12.1484 13.3319 11.3135 12.5234 10.4911C11.6195 9.5717 11.1985 8.69996 11.1985 7.74764C11.1985 6.82238 11.5749 5.96877 12.2581 5.34394C12.9496 4.71172 13.8984 4.36352 14.93 4.36352C15.701 4.36352 16.4072 4.56902 17.0287 4.97427C17.3425 5.17882 17.6269 5.42916 17.8773 5.72118C18.1279 5.42908 18.4122 5.17882 18.7259 4.97427C19.3475 4.56902 20.0537 4.36352 20.8247 4.36352Z" fill="#8551F5"/>
<path d="M46.2954 12.1733C48.1833 12.1733 49.6348 12.5829 50.65 13.4022C51.683 14.2215 52.1995 15.3079 52.1995 16.6615C52.1995 17.1958 52.1193 17.7568 51.959 18.3445C51.4603 20.1255 50.4719 21.4435 48.9936 22.2984C47.5332 23.1533 45.6809 23.5807 43.4368 23.5807H40.6851L39.7768 26.8133C39.7412 26.9201 39.7234 27.0626 39.7234 27.2407C39.7234 27.4901 39.7768 27.6949 39.8837 27.8552C40.0084 28.0155 40.1865 28.2025 40.418 28.4162C40.6139 28.5943 40.7475 28.7279 40.8187 28.8169C40.89 28.906 40.9256 29.0128 40.9256 29.1375C40.9256 29.4403 40.7831 29.654 40.4981 29.7787C40.2132 29.9033 39.7946 29.9657 39.2425 29.9657H32.537C32.0739 29.9657 31.7266 29.8855 31.4951 29.7252C31.2635 29.5471 31.1834 29.3067 31.2546 29.0039C31.2903 28.8436 31.3615 28.719 31.4684 28.6299C31.5574 28.5231 31.6999 28.4073 31.8958 28.2826C32.1986 28.1045 32.439 27.9175 32.6171 27.7216C32.7952 27.5257 32.9377 27.2229 33.0446 26.8133L36.3038 15.299C36.3751 15.0674 36.4107 14.8448 36.4107 14.6311C36.4107 14.4352 36.3751 14.2749 36.3038 14.1502C36.2504 14.0077 36.1703 13.8474 36.0634 13.6693C35.9031 13.4378 35.823 13.2508 35.823 13.1083C35.823 13.0549 35.8408 12.9569 35.8764 12.8144C35.9476 12.5829 36.099 12.4226 36.3305 12.3336C36.5799 12.2267 36.9539 12.1733 37.4526 12.1733H46.2954ZM45.6008 17.8636C45.7967 17.2047 45.8946 16.6258 45.8946 16.1271C45.8946 15.0942 45.4138 14.5777 44.452 14.5777H43.2498L41.353 21.1763H42.5285C43.2765 21.1763 43.8821 20.9448 44.3452 20.4817C44.826 20.0009 45.2446 19.1282 45.6008 17.8636Z" fill="white"/>
<path d="M78.8244 12.1733C79.1984 12.1733 79.4834 12.2356 79.6793 12.3603C79.893 12.4671 79.9999 12.6274 79.9999 12.8412C79.9999 12.9302 79.9731 13.046 79.9197 13.1885C79.8663 13.3488 79.7862 13.4734 79.6793 13.5625C79.5902 13.6337 79.4478 13.7317 79.2518 13.8563C78.9669 14.0166 78.7353 14.1947 78.5572 14.3907C78.3969 14.5866 78.2545 14.8893 78.1298 15.299L74.8705 26.7866C74.7993 27.0181 74.7637 27.2407 74.7637 27.4544C74.7637 27.6504 74.7904 27.8195 74.8438 27.962C74.915 28.0867 75.0041 28.2381 75.111 28.4162C75.1822 28.5052 75.2445 28.6032 75.298 28.7101C75.3514 28.7991 75.3781 28.8971 75.3781 29.0039C75.3781 29.0396 75.3603 29.1286 75.3247 29.2711C75.2535 29.5026 75.0842 29.6718 74.8171 29.7787C74.5677 29.8855 74.2026 29.939 73.7218 29.939H67.4437C67.0697 29.939 66.7758 29.8766 66.5621 29.752C66.3661 29.6273 66.2682 29.4581 66.2682 29.2444C66.2682 29.1375 66.2949 29.0217 66.3484 28.8971C66.4018 28.7724 66.473 28.6655 66.5621 28.5765C66.6689 28.4696 66.758 28.3984 66.8292 28.3628C66.9183 28.3093 66.9806 28.2648 67.0162 28.2292C67.3012 28.0689 67.5327 27.8908 67.7108 27.6949C67.8889 27.499 68.0403 27.1962 68.165 26.7866L70.1954 19.5734L63.2761 28.149C62.7062 28.8436 62.2431 29.3245 61.8869 29.5917C61.5485 29.841 61.1567 29.9657 60.7114 29.9657C60.284 29.9657 59.9456 29.8321 59.6962 29.565C59.4647 29.28 59.251 28.808 59.0551 28.149L56.5438 19.894L54.5669 26.8133C54.4956 27.0448 54.46 27.2674 54.46 27.4812C54.46 27.6949 54.4867 27.873 54.5402 28.0155C54.6114 28.1579 54.7094 28.3093 54.834 28.4696C54.9943 28.7012 55.0745 28.8882 55.0745 29.0306C55.0745 29.0663 55.0567 29.1553 55.021 29.2978C54.9498 29.5471 54.7895 29.7252 54.5402 29.8321C54.2908 29.9212 53.9168 29.9657 53.4181 29.9657H51.2008C50.8267 29.9657 50.5329 29.9033 50.3191 29.7787C50.1232 29.654 50.0253 29.4848 50.0253 29.2711C50.0253 29.1642 50.052 29.0485 50.1054 28.9238C50.1767 28.7279 50.2924 28.5765 50.4527 28.4696C50.613 28.3628 50.711 28.3004 50.7466 28.2826C51.0316 28.1045 51.2631 27.9264 51.4412 27.7483C51.6193 27.5524 51.7707 27.2407 51.8954 26.8133L55.1546 15.2723L54.7272 13.8563C54.6381 13.5892 54.5936 13.3309 54.5936 13.0816C54.5936 12.761 54.6916 12.5295 54.8875 12.387C55.1012 12.2445 55.4218 12.1733 55.8492 12.1733H59.9901C60.5244 12.1733 60.9162 12.289 61.1656 12.5206C61.4327 12.7521 61.6465 13.1528 61.8067 13.7228L64.4783 22.5923L71.7181 13.5892C72.1812 13.0193 72.6353 12.6452 73.0806 12.4671C73.5259 12.2712 74.1136 12.1733 74.8438 12.1733H78.8244Z" fill="white"/>
</svg>
