<svg width="41" height="16" viewBox="0 0 41 16" fill="none" xmlns="http://www.w3.org/2000/svg">
<path id="Subtract" fill-rule="evenodd" clip-rule="evenodd" d="M9.71679 0C11.9431 0 13.635 0.504623 14.7927 1.51387C15.9652 2.50827 16.5515 3.91825 16.5515 5.74379C16.5515 6.69367 16.3808 7.7697 16.0394 8.97189C15.4606 11.0498 14.3994 12.6007 12.8558 13.6248C11.3123 14.6341 9.43479 15.1387 7.22335 15.1387C5.85791 15.1387 4.66314 14.9754 3.63905 14.6489C2.6298 14.3075 1.85061 13.8697 1.30146 13.3354C0.767154 12.7862 0.5 12.2074 0.5 11.5989C0.5 11.4356 0.522269 11.265 0.566794 11.0869C0.700371 10.5229 0.982359 10.0999 1.41277 9.81788C1.85803 9.53588 2.39976 9.39489 3.03796 9.39489C3.89879 9.39489 4.58151 9.61751 5.08613 10.0628C5.59075 10.508 5.84307 11.0794 5.84307 11.777C5.84307 12.1926 5.76143 12.5859 5.59817 12.9569C5.96922 13.1053 6.41448 13.1796 6.93395 13.1796C7.7354 13.1796 8.41813 12.8456 8.98211 12.1777C9.54611 11.495 10.021 10.4264 10.4069 8.97189C9.69452 9.31326 8.86338 9.49136 7.9135 9.5062C6.80037 9.5062 5.80596 9.33552 4.93029 8.99416C4.06947 8.65279 3.39416 8.17786 2.90438 7.56934C2.42944 6.96083 2.19197 6.25584 2.19197 5.45438C2.19197 5.11302 2.23649 4.76423 2.32555 4.40803C2.65207 3.05742 3.43127 1.98881 4.66314 1.20219C5.90986 0.40073 7.59441 0 9.71679 0ZM23.6477 6.08664C24.5917 6.08664 25.3175 6.29146 25.825 6.70109C26.3415 7.11073 26.5998 7.65394 26.5998 8.33073C26.5998 8.59788 26.5597 8.87839 26.4796 9.17226C26.2302 10.0628 25.736 10.7217 24.9969 11.1492C24.2666 11.5766 23.3405 11.7904 22.2185 11.7904H20.8426L20.3885 13.4066C20.3707 13.4601 20.3618 13.5313 20.3618 13.6204C20.3618 13.745 20.3885 13.8474 20.4419 13.9276C20.5042 14.0077 20.5933 14.1012 20.7091 14.2081C20.807 14.2971 20.8738 14.3639 20.9094 14.4085C20.945 14.453 20.9629 14.5064 20.9629 14.5688C20.9629 14.7201 20.8916 14.827 20.7491 14.8893C20.6066 14.9517 20.3974 14.9828 20.1213 14.9828H16.7686C16.537 14.9828 16.3634 14.9428 16.2476 14.8626C16.1318 14.7736 16.0918 14.6534 16.1274 14.502C16.1452 14.4218 16.1808 14.3595 16.2342 14.315C16.2788 14.2615 16.35 14.2036 16.448 14.1413C16.5994 14.0523 16.7196 13.9588 16.8086 13.8608C16.8977 13.7628 16.9689 13.6115 17.0223 13.4066L18.652 7.64949C18.6876 7.53372 18.7054 7.42241 18.7054 7.31554C18.7054 7.21759 18.6876 7.13744 18.652 7.07511C18.6253 7.00387 18.5852 6.92372 18.5318 6.83467C18.4516 6.7189 18.4115 6.6254 18.4115 6.55416C18.4115 6.52744 18.4205 6.47847 18.4383 6.40722C18.4739 6.29146 18.5496 6.21131 18.6653 6.16679C18.79 6.11336 18.977 6.08664 19.2264 6.08664H23.6477ZM23.3004 8.93182C23.3984 8.60233 23.4474 8.31292 23.4474 8.06357C23.4474 7.54708 23.2069 7.28883 22.7261 7.28883H22.125L21.1766 10.5882H21.7643C22.1383 10.5882 22.4411 10.4724 22.6726 10.2409C22.9131 10.0004 23.1223 9.56408 23.3004 8.93182ZM40.3397 6.18014C40.2417 6.11781 40.0993 6.08664 39.9123 6.08664H37.922C37.5569 6.08664 37.263 6.13562 37.0404 6.23357C36.8177 6.32263 36.5907 6.50963 36.3591 6.7946L32.7392 11.2961L31.4034 6.86138C31.3233 6.57642 31.2164 6.37606 31.0828 6.26029C30.9582 6.14452 30.7623 6.08664 30.4951 6.08664H28.4247C28.211 6.08664 28.0507 6.12226 27.9438 6.1935C27.8458 6.26474 27.7969 6.38051 27.7969 6.5408C27.7969 6.66547 27.8191 6.7946 27.8637 6.92817L28.0774 7.63613L26.4477 13.4066C26.3854 13.6204 26.3097 13.7762 26.2207 13.8742C26.1316 13.9632 26.0158 14.0523 25.8734 14.1413C25.8556 14.1502 25.8066 14.1814 25.7264 14.2348C25.6463 14.2882 25.5884 14.3639 25.5528 14.4619C25.5261 14.5242 25.5127 14.5821 25.5127 14.6355C25.5127 14.7424 25.5617 14.827 25.6596 14.8893C25.7665 14.9517 25.9134 14.9828 26.1004 14.9828H27.2091C27.4585 14.9828 27.6455 14.9606 27.7702 14.9161C27.8948 14.8626 27.975 14.7736 28.0106 14.6489C28.0284 14.5777 28.0373 14.5331 28.0373 14.5153C28.0373 14.4441 27.9972 14.3506 27.9171 14.2348C27.8547 14.1547 27.8058 14.079 27.7702 14.0077C27.7434 13.9365 27.7301 13.8474 27.7301 13.7406C27.7301 13.6337 27.7479 13.5224 27.7835 13.4066L28.772 9.947L30.0276 14.0745C30.1256 14.404 30.2324 14.64 30.3482 14.7825C30.4728 14.9161 30.642 14.9828 30.8558 14.9828C31.0784 14.9828 31.2743 14.9205 31.4435 14.7958C31.6216 14.6623 31.8531 14.4218 32.1381 14.0745L35.5977 9.78671L34.5826 13.3933C34.5202 13.5981 34.4445 13.7495 34.3555 13.8474C34.2664 13.9454 34.1507 14.0344 34.0082 14.1146C33.9904 14.1324 33.9592 14.1547 33.9147 14.1814C33.879 14.1992 33.8345 14.2348 33.7811 14.2882C33.7366 14.3328 33.701 14.3862 33.6742 14.4485C33.6475 14.5109 33.6342 14.5688 33.6342 14.6222C33.6342 14.729 33.6831 14.8136 33.7811 14.876C33.888 14.9383 34.0349 14.9695 34.2219 14.9695H37.3609C37.6014 14.9695 37.7839 14.9428 37.9086 14.8893C38.0422 14.8359 38.1268 14.7513 38.1624 14.6355C38.1802 14.5643 38.1891 14.5198 38.1891 14.502C38.1891 14.4485 38.1758 14.3996 38.149 14.355C38.1223 14.3016 38.0912 14.2526 38.0555 14.2081C38.0021 14.119 37.9576 14.0434 37.922 13.981C37.8952 13.9098 37.8819 13.8252 37.8819 13.7272C37.8819 13.6204 37.8997 13.509 37.9353 13.3933L39.565 7.64949C39.6273 7.44467 39.6985 7.29328 39.7787 7.19533C39.8677 7.09737 39.9835 7.00832 40.126 6.92817C40.2239 6.86584 40.2952 6.81686 40.3397 6.78124C40.3931 6.73671 40.4332 6.67438 40.4599 6.59423C40.4866 6.52299 40.5 6.46511 40.5 6.42058C40.5 6.31372 40.4466 6.23357 40.3397 6.18014ZM10.9124 2.18176C11.4281 2.18176 11.9025 2.35586 12.2483 2.67197C12.5899 2.98438 12.7781 3.41119 12.7781 3.87377C12.7781 4.34998 12.5676 4.78585 12.1157 5.24551C11.7115 5.65675 11.1304 6.07413 10.4577 6.55739L10.4576 6.55746L10.4521 6.56141C10.2236 6.72561 9.96503 6.91141 9.69676 7.10918C9.62542 7.16184 9.5337 7.19088 9.43867 7.19088C9.34359 7.19088 9.25192 7.16184 9.18048 7.10909C8.91022 6.9099 8.64993 6.72288 8.42027 6.55787L8.41987 6.55759C7.747 6.07421 7.16596 5.65677 6.76168 5.24556C6.30976 4.78585 6.09926 4.34998 6.09926 3.87382C6.09926 3.41119 6.28744 2.98438 6.62904 2.67197C6.97477 2.35586 7.44922 2.18176 7.96499 2.18176C8.35052 2.18176 8.70359 2.28451 9.01437 2.48713C9.17126 2.58941 9.31342 2.71458 9.43867 2.86058C9.56397 2.71454 9.70609 2.58941 9.86293 2.48713C10.1738 2.28451 10.5268 2.18176 10.9124 2.18176Z" fill="white"/>
</svg>
