<svg width="77" height="60" viewBox="0 0 77 60" fill="none" xmlns="http://www.w3.org/2000/svg">
<g id="Group 1" opacity="0.1">
<path id="Vector" d="M50.8193 16.6598C49.8708 15.2766 49.0416 13.982 48.1412 12.7086C47.6301 11.9786 46.9537 11.3798 46.1671 10.9611C45.3804 10.5423 44.5059 10.3155 43.6149 10.2991C38.9507 10.0711 33.9968 12.0542 32.796 17.4469C31.9024 21.4195 31.4224 25.2176 33.1028 29.0825C33.6744 30.4329 33.7979 31.9628 34.3695 33.3132C34.8612 34.2397 35.4647 35.1023 36.1665 35.8818C38.5488 39.1141 41.4867 41.8971 44.8431 44.101C45.2881 44.3871 45.7009 44.7204 46.0742 45.0953C47.985 47.02 49.988 47.1489 52.5746 45.569C54.9486 44.1091 57.1378 42.3576 59.4079 40.7217C59.6914 40.508 59.9499 40.263 60.1785 39.9913C61.874 38.04 63.7115 36.1138 65.2395 33.9641C67.2336 31.012 68.2787 27.5212 68.2348 23.9589C68.2478 20.9246 67.2439 17.9735 65.3834 15.5764C65.0118 15.2051 64.5845 14.8941 64.1169 14.6547C62.1039 13.3085 59.7483 13.2635 57.5019 13.0465C56.2767 13.0988 55.0899 13.4888 54.0725 14.1735C52.9327 14.9272 51.8458 15.7579 50.8193 16.6598ZM49.2746 43.1624C48.3688 42.654 47.5083 42.0688 46.7025 41.4134C44.6826 39.4694 42.8393 37.354 40.7533 35.4658C38.7037 33.5144 37.2334 31.0342 36.5051 28.2995C35.5551 24.8847 35.6503 21.2635 36.7784 17.9032C37.6737 14.685 42.0353 13.6327 44.2121 14.8166C45.1424 15.3868 45.942 16.1469 46.5586 17.0471C47.1752 17.9474 47.595 18.9676 47.7905 20.0412C48.2689 21.9828 48.8899 23.8821 49.4414 25.7916C51.4872 25.1065 51.5873 25.113 52.203 22.9033C52.4953 21.8382 52.9955 20.8414 53.6748 19.9705C54.3542 19.0997 55.1992 18.3719 56.1613 17.8292C57.0862 17.3096 58.1626 17.1266 59.2073 17.3113C60.2519 17.4959 61.2003 18.0369 61.8911 18.8421C64.0752 21.3216 63.709 24.2844 63.2569 27.097C62.5951 31.2232 59.5279 34.0575 56.9031 36.9362C54.8428 39.2957 52.0032 41.0335 49.2746 43.1624Z" fill="white"/>
<path id="Vector_2" d="M10.979 20.0346C10.0602 19.9514 9.63864 19.9307 9.22173 19.8753C6.12712 19.5099 4.13973 21.268 2.8386 23.6619C2.45794 24.5265 2.37256 25.4923 2.59562 26.4102C2.81868 27.3281 3.33775 28.1471 4.0727 28.7406C5.45277 30.1312 7.16452 31.147 9.0463 31.6923C10.9281 32.2375 12.9178 32.2941 14.8275 31.8567C17.2439 31.393 19.5997 30.6137 21.9869 29.9976C24.6746 29.3013 25.2751 28.6669 24.8831 25.9772C24.5088 23.0043 23.8594 20.0725 22.943 17.2197C22.1719 15.2548 21.0337 13.4548 19.5892 11.9158C16.8398 8.82083 11.4862 9.91589 9.30973 13.3354C8.93585 13.9949 8.74892 14.7438 8.76905 15.5015C8.78918 16.2593 9.0156 16.9972 9.42396 17.6358C9.88953 18.4684 10.409 19.2697 10.979 20.0346ZM14.9652 23.6936C15.1888 23.1168 15.2583 22.4918 15.1666 21.88C15.0749 21.2683 14.8253 20.691 14.4424 20.2051C13.7243 18.9038 13.184 17.512 12.8358 16.067C12.5262 14.806 13.2448 14.0813 14.5626 14.009C16.2609 13.92 17.322 14.9804 18.3564 16.1361C20.52 18.531 21.0894 21.6155 21.8815 24.567C22.2134 25.7673 22.6916 27.1426 21.8472 28.388L20.5193 28.6428C16.8204 29.5179 12.955 29.3909 9.3214 28.275C8.32963 27.943 7.42325 27.3963 6.6668 26.6741C6.45461 26.4132 6.30456 26.1074 6.22803 25.7799C6.15151 25.4524 6.1505 25.1118 6.22508 24.7839C6.51532 23.9589 7.10189 23.2713 7.87081 22.8547C8.63973 22.4381 9.53609 22.3223 10.3857 22.5297L14.9652 23.6936Z" fill="white"/>
</g>
</svg>
