<svg width="258" height="64" viewBox="0 0 258 64" fill="none" xmlns="http://www.w3.org/2000/svg">
<rect x="1.375" y="0.5" width="50" height="63" rx="7.5" fill="white" fill-opacity="0.05"/>
<path d="M26.2131 47.554C23.8741 47.554 21.8665 46.9621 20.1903 45.7784C18.5237 44.5852 17.2405 42.8665 16.3409 40.6222C15.4508 38.3684 15.0057 35.6553 15.0057 32.483C15.0152 29.3106 15.465 26.6117 16.3551 24.3864C17.2547 22.1515 18.5379 20.447 20.2045 19.2727C21.8807 18.0985 23.8835 17.5114 26.2131 17.5114C28.5426 17.5114 30.5455 18.0985 32.2216 19.2727C33.8977 20.447 35.1809 22.1515 36.071 24.3864C36.9706 26.6212 37.4205 29.3201 37.4205 32.483C37.4205 35.6648 36.9706 38.3826 36.071 40.6364C35.1809 42.8807 33.8977 44.5947 32.2216 45.7784C30.5549 46.9621 28.5521 47.554 26.2131 47.554ZM26.2131 43.108C28.0313 43.108 29.4659 42.2131 30.517 40.4233C31.5777 38.6241 32.108 35.9773 32.108 32.483C32.108 30.1723 31.8665 28.2311 31.3835 26.6591C30.9006 25.0871 30.2188 23.9034 29.3381 23.108C28.4574 22.303 27.4157 21.9006 26.2131 21.9006C24.4044 21.9006 22.9744 22.8002 21.9233 24.5994C20.8722 26.3892 20.3419 29.017 20.3324 32.483C20.3229 34.803 20.5549 36.7538 21.0284 38.3352C21.5114 39.9167 22.1932 41.1098 23.0739 41.9148C23.9545 42.7102 25.0009 43.108 26.2131 43.108Z" fill="white"/>
<rect x="1.375" y="0.5" width="50" height="63" rx="7.5" stroke="url(#paint0_linear_21_25763)"/>
<rect x="56.375" y="0.5" width="49" height="63" rx="7.5" fill="white" fill-opacity="0.05"/>
<path d="M80.5597 17.5114C81.9517 17.5208 83.3059 17.767 84.6222 18.25C85.9479 18.7235 87.1411 19.5 88.2017 20.5795C89.2623 21.6496 90.1051 23.0843 90.7301 24.8835C91.3551 26.6828 91.6676 28.9081 91.6676 31.5597C91.6771 34.0597 91.4119 36.2945 90.8722 38.2642C90.3419 40.2244 89.5795 41.8816 88.5852 43.2358C87.5909 44.59 86.393 45.6222 84.9915 46.3324C83.59 47.0426 82.0133 47.3977 80.2614 47.3977C78.4242 47.3977 76.7955 47.0379 75.375 46.3182C73.964 45.5985 72.8229 44.6136 71.9517 43.3636C71.0805 42.1136 70.5455 40.6837 70.3466 39.0739H75.5312C75.7964 40.2292 76.3362 41.1477 77.1506 41.8295C77.9744 42.5019 79.0114 42.8381 80.2614 42.8381C82.2784 42.8381 83.8314 41.9621 84.9205 40.2102C86.0095 38.4583 86.554 36.0246 86.554 32.9091H86.3551C85.8911 33.7424 85.2898 34.4621 84.5511 35.0682C83.8125 35.6648 82.9744 36.1241 82.0369 36.446C81.1089 36.768 80.1241 36.929 79.0824 36.929C77.3778 36.929 75.8438 36.5218 74.4801 35.7074C73.1259 34.893 72.0511 33.7756 71.2557 32.3551C70.4697 30.9347 70.072 29.3106 70.0625 27.483C70.0625 25.589 70.4981 23.8892 71.3693 22.3835C72.25 20.8684 73.4763 19.6752 75.0483 18.804C76.6203 17.9233 78.4574 17.4924 80.5597 17.5114ZM80.5739 21.7727C79.5511 21.7727 78.6278 22.0237 77.804 22.5256C76.9896 23.018 76.3456 23.6903 75.8722 24.5426C75.4081 25.3854 75.1761 26.3277 75.1761 27.3693C75.1856 28.4015 75.4176 29.339 75.8722 30.1818C76.3362 31.0246 76.9659 31.6922 77.7614 32.1847C78.5663 32.6771 79.4848 32.9233 80.517 32.9233C81.2841 32.9233 81.9991 32.7765 82.6619 32.483C83.3248 32.1894 83.9025 31.7822 84.3949 31.2614C84.8968 30.7311 85.285 30.1297 85.5597 29.4574C85.8438 28.785 85.9811 28.0748 85.9716 27.3267C85.9716 26.3324 85.7348 25.4138 85.2614 24.571C84.7973 23.7282 84.1581 23.0511 83.3438 22.5398C82.5388 22.0284 81.6155 21.7727 80.5739 21.7727Z" fill="white"/>
<rect x="56.375" y="0.5" width="49" height="63" rx="7.5" stroke="url(#paint1_linear_21_25763)"/>
<path d="M117 42.902C116.138 42.902 115.4 42.599 114.784 41.9929C114.169 41.3868 113.866 40.6482 113.875 39.777C113.866 38.9247 114.169 38.1956 114.784 37.5895C115.4 36.9834 116.138 36.6804 117 36.6804C117.834 36.6804 118.558 36.9834 119.174 37.5895C119.799 38.1956 120.116 38.9247 120.125 39.777C120.116 40.3547 119.964 40.8802 119.671 41.3537C119.387 41.8272 119.008 42.206 118.534 42.4901C118.07 42.7647 117.559 42.902 117 42.902ZM117 27.3338C116.138 27.3338 115.4 27.0308 114.784 26.4247C114.169 25.8092 113.866 25.0706 113.875 24.2088C113.866 23.3565 114.169 22.6274 114.784 22.0213C115.4 21.4058 116.138 21.098 117 21.098C117.834 21.098 118.558 21.4058 119.174 22.0213C119.799 22.6274 120.116 23.3565 120.125 24.2088C120.116 24.777 119.964 25.2978 119.671 25.7713C119.387 26.2448 119.008 26.6236 118.534 26.9077C118.07 27.1918 117.559 27.3338 117 27.3338Z" fill="white"/>
<rect x="128.625" y="0.5" width="50" height="63" rx="7.5" fill="white" fill-opacity="0.05"/>
<path d="M153.463 47.554C151.124 47.554 149.116 46.9621 147.44 45.7784C145.774 44.5852 144.491 42.8665 143.591 40.6222C142.701 38.3684 142.256 35.6553 142.256 32.483C142.265 29.3106 142.715 26.6117 143.605 24.3864C144.505 22.1515 145.788 20.447 147.455 19.2727C149.131 18.0985 151.134 17.5114 153.463 17.5114C155.793 17.5114 157.795 18.0985 159.472 19.2727C161.148 20.447 162.431 22.1515 163.321 24.3864C164.221 26.6212 164.67 29.3201 164.67 32.483C164.67 35.6648 164.221 38.3826 163.321 40.6364C162.431 42.8807 161.148 44.5947 159.472 45.7784C157.805 46.9621 155.802 47.554 153.463 47.554ZM153.463 43.108C155.281 43.108 156.716 42.2131 157.767 40.4233C158.828 38.6241 159.358 35.9773 159.358 32.483C159.358 30.1723 159.116 28.2311 158.634 26.6591C158.151 25.0871 157.469 23.9034 156.588 23.108C155.707 22.303 154.666 21.9006 153.463 21.9006C151.654 21.9006 150.224 22.8002 149.173 24.5994C148.122 26.3892 147.592 29.017 147.582 32.483C147.573 34.803 147.805 36.7538 148.278 38.3352C148.761 39.9167 149.443 41.1098 150.324 41.9148C151.205 42.7102 152.251 43.108 153.463 43.108Z" fill="white"/>
<rect x="128.625" y="0.5" width="50" height="63" rx="7.5" stroke="url(#paint2_linear_21_25763)"/>
<rect x="183.625" y="0.5" width="50" height="63" rx="7.5" fill="white" fill-opacity="0.05"/>
<path d="M208.463 47.554C206.124 47.554 204.116 46.9621 202.44 45.7784C200.774 44.5852 199.491 42.8665 198.591 40.6222C197.701 38.3684 197.256 35.6553 197.256 32.483C197.265 29.3106 197.715 26.6117 198.605 24.3864C199.505 22.1515 200.788 20.447 202.455 19.2727C204.131 18.0985 206.134 17.5114 208.463 17.5114C210.793 17.5114 212.795 18.0985 214.472 19.2727C216.148 20.447 217.431 22.1515 218.321 24.3864C219.221 26.6212 219.67 29.3201 219.67 32.483C219.67 35.6648 219.221 38.3826 218.321 40.6364C217.431 42.8807 216.148 44.5947 214.472 45.7784C212.805 46.9621 210.802 47.554 208.463 47.554ZM208.463 43.108C210.281 43.108 211.716 42.2131 212.767 40.4233C213.828 38.6241 214.358 35.9773 214.358 32.483C214.358 30.1723 214.116 28.2311 213.634 26.6591C213.151 25.0871 212.469 23.9034 211.588 23.108C210.707 22.303 209.666 21.9006 208.463 21.9006C206.654 21.9006 205.224 22.8002 204.173 24.5994C203.122 26.3892 202.592 29.017 202.582 32.483C202.573 34.803 202.805 36.7538 203.278 38.3352C203.761 39.9167 204.443 41.1098 205.324 41.9148C206.205 42.7102 207.251 43.108 208.463 43.108Z" fill="white"/>
<rect x="183.625" y="0.5" width="50" height="63" rx="7.5" stroke="url(#paint3_linear_21_25763)"/>
<path d="M237.879 47V36.8182H241.697C242.48 36.8182 243.136 36.964 243.666 37.2557C244.2 37.5473 244.603 37.9484 244.874 38.4588C245.149 38.9659 245.287 39.5426 245.287 40.1889C245.287 40.8419 245.149 41.4219 244.874 41.929C244.599 42.4361 244.193 42.8355 243.656 43.1271C243.119 43.4155 242.458 43.5597 241.673 43.5597H239.142V42.0433H241.424C241.881 42.0433 242.256 41.9638 242.548 41.8047C242.839 41.6456 243.055 41.4268 243.194 41.1484C243.336 40.87 243.408 40.5502 243.408 40.1889C243.408 39.8277 243.336 39.5095 243.194 39.2344C243.055 38.9593 242.838 38.7455 242.543 38.593C242.251 38.4373 241.875 38.3594 241.414 38.3594H239.724V47H237.879ZM246.889 36.8182H249.146L252.169 44.196H252.288L255.311 36.8182H257.568V47H255.798V40.005H255.704L252.89 46.9702H251.567L248.753 39.9901H248.659V47H246.889V36.8182Z" fill="white"/>
<defs>
<linearGradient id="paint0_linear_21_25763" x1="26.375" y1="0" x2="26.375" y2="64" gradientUnits="userSpaceOnUse">
<stop stop-color="#8551F5"/>
<stop offset="0.239583" stop-color="#EB663A" stop-opacity="0.75"/>
<stop offset="0.494792" stop-color="#A157C2" stop-opacity="0.5"/>
<stop offset="0.833333" stop-opacity="0"/>
<stop offset="1" stop-color="white" stop-opacity="0.2"/>
</linearGradient>
<linearGradient id="paint1_linear_21_25763" x1="80.875" y1="0" x2="80.875" y2="64" gradientUnits="userSpaceOnUse">
<stop stop-color="#8551F5"/>
<stop offset="0.239583" stop-color="#EB663A" stop-opacity="0.75"/>
<stop offset="0.494792" stop-color="#A157C2" stop-opacity="0.5"/>
<stop offset="0.833333" stop-opacity="0"/>
<stop offset="1" stop-color="white" stop-opacity="0.2"/>
</linearGradient>
<linearGradient id="paint2_linear_21_25763" x1="153.625" y1="0" x2="153.625" y2="64" gradientUnits="userSpaceOnUse">
<stop stop-color="#8551F5"/>
<stop offset="0.239583" stop-color="#EB663A" stop-opacity="0.75"/>
<stop offset="0.494792" stop-color="#A157C2" stop-opacity="0.5"/>
<stop offset="0.833333" stop-opacity="0"/>
<stop offset="1" stop-color="white" stop-opacity="0.2"/>
</linearGradient>
<linearGradient id="paint3_linear_21_25763" x1="208.625" y1="0" x2="208.625" y2="64" gradientUnits="userSpaceOnUse">
<stop stop-color="#8551F5"/>
<stop offset="0.239583" stop-color="#EB663A" stop-opacity="0.75"/>
<stop offset="0.494792" stop-color="#A157C2" stop-opacity="0.5"/>
<stop offset="0.833333" stop-opacity="0"/>
<stop offset="1" stop-color="white" stop-opacity="0.2"/>
</linearGradient>
</defs>
</svg>
