<svg width="28" height="28" viewBox="0 0 28 28" fill="none" xmlns="http://www.w3.org/2000/svg">
<g id="Icon">
<rect width="28" height="28" rx="8" fill="#8551F5"/>
<path id="&#226;&#156;&#143;&#239;&#184;&#143; SF Symbol" d="M13.8481 20.9785C13.4414 20.9785 13.1094 20.6548 13.1094 20.2563V14.7363H7.73877C7.34033 14.7363 7 14.396 7 13.9893C7 13.5825 7.34033 13.2505 7.73877 13.2505H13.1094V7.72217C13.1094 7.32373 13.4414 7 13.8481 7C14.2549 7 14.5952 7.32373 14.5952 7.72217V13.2505H19.9575C20.356 13.2505 20.6963 13.5825 20.6963 13.9893C20.6963 14.396 20.356 14.7363 19.9575 14.7363H14.5952V20.2563C14.5952 20.6548 14.2549 20.9785 13.8481 20.9785Z" fill="white"/>
</g>
</svg>
