<svg width="25" height="24" viewBox="0 0 25 24" fill="none" xmlns="http://www.w3.org/2000/svg">
<g id="Icon/heart">
<path id="Vector" d="M18.5 1H6.5C5.17441 1.00159 3.90356 1.52888 2.96622 2.46622C2.02888 3.40356 1.50159 4.67441 1.5 6V14C1.50145 15.1522 1.90009 16.2687 2.62872 17.1613C3.35735 18.0538 4.37141 18.6679 5.5 18.9V22C5.49997 22.181 5.5491 22.3587 5.64213 22.514C5.73516 22.6693 5.86861 22.7965 6.02823 22.8819C6.18786 22.9673 6.36769 23.0078 6.54852 22.999C6.72935 22.9902 6.9044 22.9325 7.055 22.832L12.8 19H18.5C19.8256 18.9984 21.0964 18.4711 22.0338 17.5338C22.9711 16.5964 23.4984 15.3256 23.5 14V6C23.4984 4.67441 22.9711 3.40356 22.0338 2.46622C21.0964 1.52888 19.8256 1.00159 18.5 1ZM16.5 13H8.5C8.23478 13 7.98043 12.8946 7.79289 12.7071C7.60536 12.5196 7.5 12.2652 7.5 12C7.5 11.7348 7.60536 11.4804 7.79289 11.2929C7.98043 11.1054 8.23478 11 8.5 11H16.5C16.7652 11 17.0196 11.1054 17.2071 11.2929C17.3946 11.4804 17.5 11.7348 17.5 12C17.5 12.2652 17.3946 12.5196 17.2071 12.7071C17.0196 12.8946 16.7652 13 16.5 13ZM18.5 9H6.5C6.23478 9 5.98043 8.89464 5.79289 8.70711C5.60536 8.51957 5.5 8.26522 5.5 8C5.5 7.73478 5.60536 7.48043 5.79289 7.29289C5.98043 7.10536 6.23478 7 6.5 7H18.5C18.7652 7 19.0196 7.10536 19.2071 7.29289C19.3946 7.48043 19.5 7.73478 19.5 8C19.5 8.26522 19.3946 8.51957 19.2071 8.70711C19.0196 8.89464 18.7652 9 18.5 9Z" fill="#8551F5"/>
</g>
</svg>
