<svg width="25" height="24" viewBox="0 0 25 24" fill="none" xmlns="http://www.w3.org/2000/svg">
<g id="Icon/heart">
<path id="Vector" d="M12.8 18.5H12.6485L12.5225 18.584L6.77755 22.416L6.7775 22.4161C6.7022 22.4663 6.61468 22.4952 6.52426 22.4996C6.43384 22.504 6.34393 22.4837 6.26412 22.441C6.1843 22.3983 6.11758 22.3347 6.07106 22.2571C6.02455 22.1794 5.99999 22.0906 6 22.0001V22V18.9V18.4924L5.60072 18.4102C4.58479 18.2013 3.67194 17.6485 3.01605 16.8451C2.36022 16.0417 2.00138 15.0368 2 13.9997V6.00031C2.00151 4.80722 2.47613 3.66342 3.31977 2.81977C4.16342 1.97613 5.30722 1.50151 6.50031 1.5H18.4997C19.6928 1.50151 20.8366 1.97613 21.6802 2.81977C22.5239 3.66349 22.9986 4.8074 23 6.0006V13.9994C22.9986 15.1926 22.5239 16.3365 21.6802 17.1802C20.8365 18.0239 19.6926 18.4986 18.4994 18.5H12.8Z" stroke="white" stroke-opacity="0.4"/>
<path id="Vector_2" d="M16.5 12.5H8.5C8.36739 12.5 8.24022 12.4473 8.14645 12.3536C8.05268 12.2598 8 12.1326 8 12C8 11.8674 8.05268 11.7402 8.14645 11.6464C8.24022 11.5527 8.36739 11.5 8.5 11.5H16.5C16.6326 11.5 16.7598 11.5527 16.8536 11.6464C16.9473 11.7402 17 11.8674 17 12C17 12.1326 16.9473 12.2598 16.8536 12.3536C16.7598 12.4473 16.6326 12.5 16.5 12.5ZM18.5 8.5H6.5C6.36739 8.5 6.24022 8.44732 6.14645 8.35355C6.05268 8.25978 6 8.13261 6 8C6 7.86739 6.05268 7.74022 6.14645 7.64645C6.24022 7.55268 6.36739 7.5 6.5 7.5H18.5C18.6326 7.5 18.7598 7.55268 18.8536 7.64645C18.9473 7.74021 19 7.86739 19 8C19 8.13261 18.9473 8.25979 18.8536 8.35355C18.7598 8.44732 18.6326 8.5 18.5 8.5Z" stroke="white" stroke-opacity="0.4"/>
</g>
</svg>
