<svg width="27" height="24" viewBox="0 0 27 24" fill="none" xmlns="http://www.w3.org/2000/svg">
<g id="heart (1) 1">
<path id="Vector" d="M23.5961 3.4021C22.3537 2.05463 20.649 1.3125 18.7956 1.3125C17.4102 1.3125 16.1415 1.75049 15.0245 2.6142C14.4609 3.05017 13.9503 3.58356 13.5 4.20612C13.0499 3.58374 12.5391 3.05017 11.9753 2.6142C10.8585 1.75049 9.58978 1.3125 8.20441 1.3125C6.35101 1.3125 4.64612 2.05463 3.40375 3.4021C2.17621 4.73383 1.5 6.55316 1.5 8.52521C1.5 10.5549 2.25641 12.4129 3.88037 14.3725C5.33313 16.1254 7.42108 17.9048 9.83899 19.9653C10.6646 20.6689 11.6005 21.4666 12.5722 22.3162C12.8289 22.541 13.1583 22.6648 13.5 22.6648C13.8415 22.6648 14.1711 22.541 14.4274 22.3165C15.3992 21.4667 16.3356 20.6688 17.1616 19.9647C19.5791 17.9046 21.6671 16.1254 23.1198 14.3723C24.7438 12.4129 25.5 10.5549 25.5 8.52502C25.5 6.55316 24.8238 4.73383 23.5961 3.4021Z" stroke="white" stroke-opacity="0.4" stroke-width="1.5"/>
</g>
</svg>
