<svg width="25" height="24" viewBox="0 0 25 24" fill="none" xmlns="http://www.w3.org/2000/svg">
<g id="heart (1) 1">
<path id="Vector" d="M22.5961 3.4021C21.3537 2.05463 19.649 1.3125 17.7956 1.3125C16.4102 1.3125 15.1415 1.75049 14.0245 2.6142C13.4609 3.05017 12.9503 3.58356 12.5 4.20612C12.0499 3.58374 11.5391 3.05017 10.9753 2.6142C9.85852 1.75049 8.58978 1.3125 7.20441 1.3125C5.35101 1.3125 3.64612 2.05463 2.40375 3.4021C1.17621 4.73383 0.5 6.55316 0.5 8.52521C0.5 10.5549 1.25641 12.4129 2.88037 14.3725C4.33313 16.1254 6.42108 17.9048 8.83899 19.9653C9.66461 20.6689 10.6005 21.4666 11.5722 22.3162C11.8289 22.541 12.1583 22.6648 12.5 22.6648C12.8415 22.6648 13.1711 22.541 13.4274 22.3165C14.3992 21.4667 15.3356 20.6688 16.1616 19.9647C18.5791 17.9046 20.6671 16.1254 22.1198 14.3723C23.7438 12.4129 24.5 10.5549 24.5 8.52502C24.5 6.55316 23.8238 4.73383 22.5961 3.4021Z" fill="#8551F5"/>
</g>
</svg>
