<svg width="121" height="121" viewBox="0 0 121 121" fill="none" xmlns="http://www.w3.org/2000/svg">
<g opacity="0.8" clip-path="url(#clip0_26_29983)">
<path d="M120 49.7037C120 26.708 97.6914 8 70.2714 8C42.8506 8 20.542 26.7082 20.542 49.7037C20.542 72.6992 42.8506 91.4074 70.2714 91.4074C72.5769 91.4074 74.8904 91.2739 77.1649 91.0104C87.7265 97.7198 95.5232 101.392 100.356 101.929C100.524 101.947 100.693 101.957 100.858 101.957C102.411 101.957 103.847 101.183 104.703 99.8861C105.659 98.4351 105.721 96.5943 104.87 95.0914C104.83 95.0198 101.101 88.2159 102.177 81.7167C113.522 73.7771 120 62.1743 120 49.7037ZM56.7659 56.0022C52.6971 56.0022 49.3996 52.7039 49.3996 48.6357C49.3996 44.5673 52.6971 41.2692 56.7659 41.2692C60.834 41.2692 64.1328 44.5675 64.1328 48.6357C64.133 52.7039 60.8342 56.0022 56.7659 56.0022ZM83.7779 56.0022C79.7085 56.0022 76.4102 52.7039 76.4102 48.6357C76.4102 44.5673 79.7085 41.2692 83.7779 41.2692C87.8459 41.2692 91.1441 44.5675 91.1441 48.6357C91.1441 52.7039 87.8457 56.0022 83.7779 56.0022Z" fill="white" fill-opacity="0.1"/>
<path d="M31.0476 83.0696C26.1133 78.9839 22.2237 74.2014 19.4884 68.8555C16.6043 63.2192 15.1422 57.2235 15.1422 51.0353C15.1422 44.8469 16.6045 38.8514 19.4884 33.2151C19.7092 32.7837 19.9404 32.3577 20.1759 31.9335C7.99608 38.9116 0 50.5578 0 63.7231C0 75.5512 6.37157 86.5178 17.5027 93.8947C19.5586 101.977 14.7878 110.528 14.7375 110.615C14.4531 111.116 14.4741 111.735 14.7914 112.216C15.0773 112.65 15.56 112.907 16.0724 112.907C16.129 112.907 16.1855 112.904 16.2427 112.897C21.8118 112.279 31.6186 106.619 39.048 101.846C41.5502 102.186 44.108 102.357 46.66 102.357C56.42 102.357 65.4878 99.8616 72.9865 95.6027C71.3112 95.7369 69.6237 95.8084 67.9414 95.8084C54.0718 95.8084 40.9694 91.2843 31.0476 83.0696Z" fill="white" fill-opacity="0.1"/>
<rect x="90" y="-1" width="32" height="32" rx="16" fill="#3D3D3D"/>
<path d="M106 22.1989C104.93 22.1989 104.018 21.9077 103.266 21.3253C102.513 20.7382 101.938 19.8883 101.54 18.7756C101.142 17.6581 100.943 16.3087 100.943 14.7273C100.943 13.1553 101.142 11.813 101.54 10.7003C101.942 9.58286 102.52 8.73059 103.273 8.14347C104.03 7.55161 104.939 7.25568 106 7.25568C107.061 7.25568 107.967 7.55161 108.72 8.14347C109.478 8.73059 110.055 9.58286 110.453 10.7003C110.856 11.813 111.057 13.1553 111.057 14.7273C111.057 16.3087 110.858 17.6581 110.46 18.7756C110.062 19.8883 109.487 20.7382 108.734 21.3253C107.982 21.9077 107.07 22.1989 106 22.1989ZM106 20.6364C107.061 20.6364 107.884 20.125 108.472 19.1023C109.059 18.0795 109.352 16.6212 109.352 14.7273C109.352 13.4678 109.217 12.3954 108.947 11.5099C108.682 10.6245 108.299 9.94981 107.797 9.4858C107.3 9.02178 106.701 8.78977 106 8.78977C104.949 8.78977 104.127 9.30824 103.536 10.3452C102.944 11.3774 102.648 12.8381 102.648 14.7273C102.648 15.9867 102.78 17.0568 103.045 17.9375C103.311 18.8182 103.692 19.4882 104.189 19.9474C104.691 20.4067 105.295 20.6364 106 20.6364Z" fill="white" fill-opacity="0.6"/>
<rect x="90" y="-1" width="32" height="32" rx="16" stroke="#2C2C2C" stroke-width="4"/>
<line x1="58" y1="66" x2="85" y2="66" stroke="#2C2C2C" stroke-width="4"/>
</g>
<defs>
<clipPath id="clip0_26_29983">
<rect width="120" height="120" fill="white" transform="translate(0.5 0.5)"/>
</clipPath>
</defs>
</svg>
