<svg width="20" height="21" viewBox="0 0 20 21" fill="none" xmlns="http://www.w3.org/2000/svg">
<circle cx="10" cy="10.5547" r="10" fill="#767680" fill-opacity="0.24"/>
<path d="M5.26929 15.2891C5.38574 15.4055 5.52402 15.4856 5.68413 15.5292C5.8491 15.5681 6.01164 15.5681 6.17176 15.5292C6.33673 15.4856 6.47744 15.4079 6.59389 15.2963L10 11.883L13.4134 15.2891C13.5298 15.4104 13.6657 15.4904 13.821 15.5292C13.9811 15.5681 14.1412 15.5681 14.3013 15.5292C14.4663 15.4856 14.607 15.4031 14.7234 15.2818C14.8496 15.1653 14.9321 15.0271 14.9709 14.8669C15.0097 14.702 15.0097 14.5394 14.9709 14.3793C14.9321 14.2192 14.852 14.0809 14.7307 13.9645L11.3319 10.5511L14.7307 7.14497C14.852 7.02852 14.9321 6.89023 14.9709 6.73012C15.0097 6.57 15.0097 6.40989 14.9709 6.24977C14.9321 6.0848 14.8496 5.94409 14.7234 5.82764C14.607 5.70634 14.4663 5.62629 14.3013 5.58747C14.1412 5.5438 13.9811 5.5438 13.821 5.58747C13.6657 5.62629 13.5298 5.70392 13.4134 5.82037L10 9.22648L6.59389 5.81309C6.47744 5.70149 6.33673 5.62629 6.17176 5.58747C6.01164 5.5438 5.8491 5.5438 5.68413 5.58747C5.52402 5.62629 5.38574 5.70392 5.26929 5.82037C5.14799 5.94167 5.06793 6.0848 5.02911 6.24977C4.9903 6.40989 4.9903 6.57 5.02911 6.73012C5.06793 6.89023 5.14556 7.02852 5.26201 7.14497L8.6754 10.5511L5.26201 13.9645C5.14556 14.0809 5.06793 14.2192 5.02911 14.3793C4.9903 14.5394 4.9903 14.702 5.02911 14.8669C5.06793 15.0271 5.14799 15.1678 5.26929 15.2891Z" fill="#EBEBF5" fill-opacity="0.6"/>
</svg>
