<svg width="24" height="24" viewBox="0 0 24 24" fill="none" xmlns="http://www.w3.org/2000/svg">
<path d="M19.1429 0.728569H6.48396C5.00488 0.729239 3.80589 1.92807 3.80539 3.40714V4.56428H2.54646C2.25047 4.56428 2.01074 4.80418 2.01074 5.1C2.01074 5.39581 2.25047 5.63571 2.54646 5.63571H3.79986V9.15H2.54646C2.25047 9.15 2.01074 9.38973 2.01074 9.68571C2.01074 9.98153 2.25047 10.2214 2.54646 10.2214H3.79986V13.7357H2.54646C2.25047 13.7357 2.01074 13.9756 2.01074 14.2714C2.01074 14.5674 2.25047 14.8071 2.54646 14.8071H3.79986V18.3214H2.54646C2.25047 18.3214 2.01074 18.5613 2.01074 18.8571C2.01074 19.153 2.25047 19.3929 2.54646 19.3929H3.79986V20.55C3.80053 22.0291 4.99936 23.2279 6.47843 23.2286H19.1374C20.6164 23.2279 21.8156 22.0291 21.8159 20.55V3.40714C21.8181 1.92907 20.621 0.729573 19.1429 0.728569ZM20.75 20.55C20.7474 21.4364 20.0293 22.1546 19.1429 22.1571H6.48396C5.59752 22.1546 4.87932 21.4364 4.87681 20.55V19.3929H6.13022C6.4262 19.3929 6.66593 19.153 6.66593 18.8571C6.66593 18.5613 6.4262 18.3214 6.13022 18.3214H4.87681V14.8071H6.13022C6.4262 14.8071 6.66593 14.5674 6.66593 14.2714C6.66593 13.9756 6.4262 13.7357 6.13022 13.7357H4.87681V10.2214H6.13022C6.4262 10.2214 6.66593 9.98153 6.66593 9.68571C6.66593 9.38973 6.4262 9.15 6.13022 9.15H4.87681V5.63571H6.13022C6.4262 5.63571 6.66593 5.39581 6.66593 5.1C6.66593 4.80418 6.4262 4.56428 6.13022 4.56428H4.87681V3.40714C4.87932 2.5207 5.59752 1.80251 6.48396 1.8H19.1429C20.0293 1.80251 20.7474 2.5207 20.75 3.40714V20.55Z" fill="white"/>
<path d="M12.8109 11.8232C14.2457 11.8232 15.4091 10.66 15.4091 9.225C15.4091 7.78995 14.2457 6.62679 12.8109 6.62679C11.3758 6.62679 10.2126 7.78995 10.2126 9.225C10.214 10.6594 11.3763 11.8219 12.8109 11.8232ZM12.8109 7.69286C13.6539 7.69286 14.3376 8.37656 14.3376 9.21964C14.3376 10.0627 13.6539 10.7464 12.8109 10.7464C11.9676 10.7464 11.2841 10.0627 11.2841 9.21964C11.2856 8.37723 11.9681 7.69436 12.8109 7.69286Z" fill="white"/>
<path d="M12.8109 12.6857C10.5823 12.6857 8.83569 14.4911 8.83569 16.8C8.83653 17.0955 9.07593 17.3349 9.37141 17.3357H16.2501C16.5456 17.3349 16.785 17.0955 16.7859 16.8C16.7859 14.4911 15.0393 12.6857 12.8109 12.6857ZM9.94998 16.2643C10.1805 14.8018 11.3323 13.7571 12.8109 13.7571C14.2893 13.7571 15.4466 14.8018 15.6716 16.2643H9.94998Z" fill="white"/>
</svg>
