<svg width="16" height="17" viewBox="0 0 16 17" fill="none" xmlns="http://www.w3.org/2000/svg">
<path d="M8 0.554718C3.58011 0.554718 0 4.13475 0 8.55472C0 12.9747 3.58003 16.5547 8 16.5547C12.42 16.5547 16 12.9744 16 8.55472C16 4.13507 12.42 0.554718 8 0.554718ZM7.1161 4.62102H8.8839V9.57121H7.1161V4.62102ZM8 12.4884C7.5138 12.4884 7.1161 12.0907 7.1161 11.6045C7.1161 11.1183 7.51382 10.7206 8 10.7206C8.48618 10.7206 8.8839 11.1183 8.8839 11.6045C8.8839 12.0907 8.48618 12.4884 8 12.4884Z" fill="#CB2027"/>
</svg>
